<svg xmlns="http://www.w3.org/2000/svg" viewBox="0 0 64 64">
  <defs>
    <linearGradient id="g" x1="0%" y1="0%" x2="100%" y2="100%">
      <stop offset="0%" stop-color="#6c5ce7"/>
      <stop offset="100%" stop-color="#5a4bd1"/>
    </linearGradient>
  </defs>
  <rect width="64" height="64" rx="14" fill="url(#g)"/>
  <g fill="none" stroke="#fff" stroke-width="2.5" stroke-linecap="round" stroke-linejoin="round">
    <!-- book shape -->
    <path d="M16 14v36c0 0 6-3 16-3s16 3 16 3V14c0 0-6-3-16-3S16 14 16 14z"/>
    <line x1="32" y1="11" x2="32" y2="47"/>
    <!-- left page lines -->
    <line x1="21" y1="22" x2="29" y2="22"/>
    <line x1="21" y1="28" x2="28" y2="28"/>
    <line x1="21" y1="34" x2="27" y2="34"/>
    <!-- right page: node graph -->
    <circle cx="39" cy="22" r="2.5" fill="#fff"/>
    <circle cx="46" cy="28" r="2.5" fill="#fff"/>
    <circle cx="38" cy="34" r="2.5" fill="#fff"/>
    <line x1="41" y1="23" x2="44.5" y2="26.5"/>
    <line x1="44" y1="29.5" x2="40" y2="32.5"/>
  </g>
</svg>
